<?xml version="1.0" standalone="no"?>
<!DOCTYPE svg PUBLIC "-//W3C//DTD SVG 20010904//EN"
 "http://www.w3.org/TR/2001/REC-SVG-20010904/DTD/svg10.dtd">
<svg version="1.0" xmlns="http://www.w3.org/2000/svg"
 width="500.000000pt" height="128.000000pt" viewBox="0 0 500.000000 128.000000"
 preserveAspectRatio="xMidYMid meet">

<g transform="translate(0.000000,128.000000) scale(0.100000,-0.100000)"
fill="#000000" stroke="none">
<path d="M3720 1024 c-60 -16 -125 -51 -153 -81 -16 -19 -16 -21 3 -38 20 -18
21 -18 43 2 99 91 289 97 405 13 40 -29 40 -29 58 -9 18 20 18 21 -6 40 -66
52 -176 90 -258 88 -20 0 -62 -7 -92 -15z"/>
<path d="M1551 1003 c-52 -27 -76 -66 -76 -123 0 -84 54 -133 150 -133 95 0
149 48 149 133 0 82 -46 128 -136 136 -39 4 -62 1 -87 -13z m100 -40 c21 -24
19 -147 -2 -169 -21 -21 -55 -11 -63 19 -9 34 -7 113 4 141 11 30 41 34 61 9z"/>
<path d="M1893 1013 c-12 -2 -34 -18 -48 -34 -46 -55 -29 -99 52 -135 70 -31
66 -49 -12 -49 -62 0 -82 -15 -45 -35 30 -16 142 -15 176 1 40 20 61 60 49 96
-7 20 -26 36 -67 56 -57 27 -72 49 -43 61 8 3 28 3 44 0 20 -4 30 -1 34 10 10
25 -71 42 -140 29z"/>
<path d="M2120 880 l0 -130 49 0 c48 0 50 1 53 32 4 44 21 45 49 3 23 -33 27
-35 83 -35 45 0 56 3 49 13 -47 60 -93 128 -93 138 0 6 13 28 28 48 44 56 46
61 20 61 -17 0 -38 -19 -78 -72 l-55 -73 -3 73 -3 72 -49 0 -50 0 0 -130z"/>
<path d="M2500 1006 c0 -1 5 -17 11 -33 9 -28 5 -41 -35 -122 -25 -50 -46 -93
-46 -96 0 -14 41 -2 50 15 9 16 21 20 65 20 45 0 55 -3 60 -20 5 -17 15 -20
65 -20 l59 0 -62 130 -62 129 -52 1 c-29 0 -53 -2 -53 -4z m70 -163 c0 -8 -12
-13 -30 -13 -35 0 -35 1 -14 42 l16 32 14 -25 c7 -13 13 -30 14 -36z"/>
<path d="M2770 880 l0 -130 50 0 50 0 0 45 c0 31 4 45 14 45 7 0 21 -20 30
-45 l18 -45 59 0 59 0 -25 50 -26 51 21 26 c28 36 25 69 -9 104 -29 28 -32 29
-135 29 l-106 0 0 -130z m148 78 c27 -27 7 -78 -30 -78 -15 0 -18 8 -18 45 0
37 3 45 18 45 10 0 23 -5 30 -12z"/>
<path d="M3743 916 c-43 -14 -113 -53 -113 -64 0 -3 7 -13 16 -23 15 -17 18
-17 55 8 68 45 175 44 242 -1 34 -24 36 -24 52 -6 22 24 14 35 -48 66 -61 31
-145 40 -204 20z"/>
<path d="M3775 813 c-11 -2 -31 -13 -45 -24 -25 -19 -25 -19 -5 -34 11 -9 26
-12 35 -9 29 14 98 16 120 4 18 -10 25 -9 37 3 38 38 -56 78 -142 60z"/>
<path d="M3787 692 c-22 -25 -21 -45 3 -67 29 -27 74 -10 78 28 6 53 -46 77
-81 39z"/>
<path d="M494 657 c-2 -7 -3 -67 -2 -132 3 -104 5 -120 20 -123 14 -3 18 7 20
63 l3 67 48 -67 49 -67 49 68 49 68 0 -67 0 -67 50 0 50 0 0 135 0 135 -33 0
c-29 0 -37 -7 -77 -66 -24 -36 -47 -67 -51 -69 -3 -3 -28 27 -55 65 -44 62
-53 70 -82 70 -18 0 -35 -6 -38 -13z"/>
<path d="M954 651 c-47 -29 -64 -59 -64 -114 0 -91 51 -137 153 -137 91 0 147
51 147 135 0 52 -31 102 -75 121 -49 20 -124 18 -161 -5z m114 -33 c19 -19 16
-153 -4 -172 -18 -19 -20 -19 -44 -6 -24 13 -35 94 -20 149 9 33 15 41 33 41
13 0 28 -5 35 -12z"/>
<path d="M1245 657 c-3 -7 -4 -67 -3 -133 l3 -119 103 -3 c97 -3 102 -2 102
18 0 17 -6 20 -50 20 l-49 0 -3 113 -3 112 -48 3 c-33 2 -49 -1 -52 -11z"/>
<path d="M1540 663 c0 -4 5 -21 11 -38 10 -28 7 -39 -35 -123 -25 -50 -46 -94
-46 -97 0 -14 41 -2 50 15 9 16 21 20 65 20 45 0 55 -3 60 -20 5 -17 15 -20
66 -20 32 0 59 2 59 5 0 3 -29 64 -65 135 l-65 130 -50 0 c-28 0 -50 -3 -50
-7z m70 -170 c0 -13 -42 -18 -53 -7 -3 4 1 20 10 37 l15 31 14 -25 c7 -13 13
-30 14 -36z"/>
<path d="M1810 535 c0 -128 1 -135 20 -135 18 0 20 7 20 71 l0 70 84 -70 c64
-55 91 -71 115 -71 l31 0 0 135 c0 127 -1 135 -20 135 -17 0 -19 -8 -22 -70
l-3 -69 -83 69 c-62 51 -92 70 -113 70 l-29 0 0 -135z"/>
<path d="M2150 536 l0 -136 73 0 c91 0 143 14 178 49 38 38 46 90 23 138 -28
57 -69 75 -180 81 l-94 5 0 -137z m168 53 c19 -36 9 -109 -18 -131 -43 -35
-50 -25 -50 70 0 49 3 91 6 95 11 11 49 -10 62 -34z"/>
<path d="M2490 535 l0 -135 110 0 c102 0 110 1 110 20 0 16 -8 19 -57 22 -57
3 -58 3 -61 35 -3 31 -3 32 45 35 35 2 48 7 48 18 0 10 -14 17 -45 20 -44 5
-45 6 -45 40 l0 35 58 3 c49 3 57 6 57 22 0 19 -8 20 -110 20 l-110 0 0 -135z"/>
<path d="M2770 535 l0 -135 50 0 50 0 0 50 c0 29 4 50 11 50 6 0 20 -22 32
-50 l21 -50 58 0 58 0 -27 54 c-24 50 -25 55 -10 71 43 43 26 112 -33 132 -19
7 -74 12 -122 12 l-88 1 0 -135z m142 78 c24 -21 23 -60 -1 -73 -34 -18 -41
-12 -41 40 0 54 10 62 42 33z"/>
<path d="M4432 510 c0 -14 2 -19 5 -12 2 6 2 18 0 25 -3 6 -5 1 -5 -13z"/>
</g>
</svg>
